<svg width="117" height="32" viewBox="0 0 117 32" fill="none" xmlns="http://www.w3.org/2000/svg">
<path fill-rule="evenodd" clip-rule="evenodd" d="M30.8488 14.8152L24.4271 3.68103C23.9651 2.84944 23.0411 2.29504 22.0709 2.29504H9.27355C8.30336 2.29504 7.37937 2.80324 6.91737 3.68103L0.54181 14.8152C0.0798132 15.6468 0.0798132 16.6632 0.54181 17.5409L6.96357 28.6751C7.42557 29.5067 8.34956 30.0611 9.31975 30.0611H22.1171C23.0873 30.0611 24.0113 29.5529 24.4733 28.6751L30.8488 17.5409C31.3108 16.6632 31.3108 15.6468 30.8488 14.8152ZM27.2452 17.2175L22.3481 25.7183C21.9785 26.3651 21.2855 26.7809 20.5463 26.7809H10.7981C10.0589 26.7809 9.36595 26.3651 8.99636 25.7183L4.14539 17.2175C3.77579 16.5708 3.77579 15.7854 4.14539 15.1386L8.99636 6.63782C9.36595 5.99102 10.0589 5.57522 10.7981 5.57522H20.5463C21.2855 5.57522 21.9785 5.99102 22.3481 6.63782L27.2452 15.1386C27.6148 15.7854 27.6148 16.5708 27.2452 17.2175Z" fill="white"/>
<path fill-rule="evenodd" clip-rule="evenodd" d="M22.773 18.4816C22.9501 18.1736 22.7277 17.7894 22.3725 17.7894H19.6537C19.4879 17.7894 19.3348 17.8782 19.2526 18.0221L18.234 19.8047C18.0954 20.0357 17.8182 20.2205 17.541 20.2205H13.845C13.5678 20.2205 13.2906 20.0819 13.152 19.8047L12.1334 18.0221C12.0511 17.8782 11.8981 17.7894 11.7323 17.7894H9.01346C8.65821 17.7894 8.43588 18.1736 8.61292 18.4816L11.073 22.7615C11.3502 23.2235 11.8122 23.5007 12.3204 23.5007H19.0656C19.5738 23.5007 20.0357 23.2235 20.3129 22.7615L22.773 18.4816ZM20.2667 9.59454L22.6938 13.8169C22.8708 14.1249 22.6485 14.5092 22.2933 14.5092H19.6208C19.4551 14.5092 19.302 14.4203 19.2197 14.2764L18.234 12.5513C18.0954 12.2741 17.8182 12.1355 17.541 12.1355H13.845C13.5678 12.1355 13.2906 12.3203 13.152 12.5513L12.1662 14.2764C12.084 14.4203 11.9309 14.5092 11.7651 14.5092H9.0465C8.69124 14.5092 8.46892 14.1249 8.64595 13.8169L11.073 9.59454C11.3502 9.13255 11.8122 8.85535 12.3204 8.85535H19.0194C19.5276 8.85535 19.9896 9.13255 20.2667 9.59454Z" fill="white"/>
<path fill-rule="evenodd" clip-rule="evenodd" d="M105.428 11.8116V20.0825C105.428 20.7294 105.29 21.4225 105.013 22.0232C104.735 22.6239 104.366 23.1784 103.857 23.6404C102.656 24.6108 101.177 25.1652 99.6064 25.1652C98.0816 25.1652 96.5568 24.6108 95.3555 23.6404C94.8472 23.1784 94.4775 22.6239 94.2003 22.0232C93.9231 21.4225 93.7844 20.7294 93.7844 20.0825V11.8116H97.1113V20.0825C97.1113 20.3136 97.1575 20.5908 97.2499 20.8218C97.3423 21.0529 97.4809 21.2377 97.6658 21.4225C98.2202 21.7922 98.8671 22.0232 99.5602 22.0232C100.253 22.0232 100.9 21.8384 101.455 21.4225C101.64 21.2377 101.778 21.0529 101.871 20.8218C101.963 20.5908 102.009 20.3598 102.009 20.0825V11.8116H105.428ZM111.666 22.8549C111.99 22.8549 112.313 22.8087 112.59 22.7163C112.821 22.6701 113.052 22.5315 113.237 22.3929C113.376 22.2542 113.515 22.1156 113.607 21.9308C113.699 21.746 113.699 21.5611 113.699 21.3763C113.699 21.2377 113.699 21.1453 113.653 21.0067C113.607 20.8681 113.561 20.7756 113.468 20.6832C113.284 20.4984 113.006 20.3136 112.775 20.2212C112.452 20.0825 112.128 19.9439 111.759 19.8515C111.343 19.7129 110.973 19.6205 110.557 19.4819C110.141 19.3432 109.772 19.2046 109.356 19.0198C108.986 18.835 108.617 18.6039 108.293 18.3267C107.97 18.0495 107.739 17.6798 107.554 17.3102C107.369 16.8481 107.277 16.3398 107.277 15.8316C107.277 15.3233 107.369 14.7688 107.6 14.3068C107.831 13.7985 108.155 13.3826 108.57 13.013C109.033 12.6433 109.587 12.3199 110.141 12.1351C110.835 11.904 111.574 11.8116 112.313 11.8116C113.145 11.8116 114.023 11.9502 114.808 12.2737C115.501 12.5509 116.148 12.9206 116.703 13.4288L116.749 13.475L115.64 15.4157L114.808 14.9536H114.762L114.208 14.6764H114.161C113.93 14.584 113.653 14.4916 113.376 14.3992C113.052 14.3068 112.683 14.2605 112.359 14.2605C111.851 14.2143 111.389 14.353 110.973 14.6302C110.835 14.7226 110.696 14.8612 110.604 15.0461C110.511 15.2309 110.465 15.4157 110.465 15.6005C110.465 15.7392 110.465 15.8316 110.511 15.924C110.557 16.0164 110.604 16.1088 110.696 16.2012C110.881 16.386 111.158 16.5709 111.389 16.6633C111.712 16.8019 112.036 16.9405 112.406 17.0329C112.821 17.1715 113.191 17.264 113.561 17.4026C113.93 17.5412 114.346 17.6798 114.716 17.8646C115.086 18.0495 115.455 18.2343 115.779 18.5115C116.102 18.7888 116.333 19.1122 116.518 19.4819C116.703 19.8977 116.795 20.3598 116.795 20.8218C116.795 21.4225 116.703 22.0232 116.472 22.5777C116.241 23.1322 115.871 23.5942 115.455 23.9639C114.947 24.3797 114.392 24.657 113.792 24.888C113.052 25.119 112.267 25.2114 111.528 25.2114C111.066 25.2114 110.65 25.1652 110.188 25.0728C109.772 24.9804 109.356 24.888 108.94 24.7494C108.57 24.6108 108.201 24.4259 107.831 24.2411C107.508 24.0563 107.23 23.8715 106.953 23.5942L108.201 21.4225C109.356 22.1156 110.234 22.8549 111.666 22.8549ZM40.601 18.8812V25.1652H37.3203V7.14478H44.2513C45.8685 7.14478 47.4395 7.74546 48.5947 8.90062C49.1491 9.40889 49.6112 10.0558 49.9346 10.7951C50.2581 11.4882 50.3967 12.2737 50.3967 13.0592C50.3967 13.8447 50.2581 14.584 49.9346 15.3233C49.6112 16.0164 49.1491 16.6633 48.5947 17.2178C48.1326 17.6336 47.6243 18.0033 47.0698 18.2805L51.0898 25.2114H47.0698L43.512 18.9274H40.601V18.8812ZM44.2051 10.333H40.601V15.6929H44.2051C44.9444 15.6929 45.6837 15.4157 46.1919 14.9074C46.4692 14.6764 46.654 14.3992 46.8388 14.0757C46.9774 13.7523 47.0698 13.3826 47.0698 13.0592C47.0698 12.6895 46.9774 12.3661 46.8388 12.0426C46.7002 11.7192 46.4692 11.442 46.1919 11.2109C45.6837 10.6565 44.9444 10.333 44.2051 10.333ZM63.7503 11.8116V20.0825C63.7503 20.7294 63.6117 21.4225 63.3345 22.0232C63.0572 22.6239 62.6876 23.1784 62.1793 23.6404C60.978 24.6108 59.4994 25.1652 57.9283 25.1652C56.4035 25.1652 54.8787 24.6108 53.6774 23.6404C53.1691 23.1784 52.7994 22.6239 52.5222 22.0232C52.245 21.4225 52.1063 20.7294 52.1063 20.0825V11.8116H55.4332V20.0825C55.4332 20.3136 55.4794 20.5908 55.5718 20.8218C55.6642 21.0529 55.8028 21.2377 55.9877 21.4225C56.5421 21.7922 57.189 22.0232 57.8821 22.0232C58.5752 22.0232 59.2221 21.8384 59.7766 21.4225C59.9614 21.2377 60.1 21.0529 60.1924 20.8218C60.2849 20.5908 60.3311 20.3598 60.3311 20.0825V11.8116H63.7503ZM65.6448 7.14478H68.9716V13.244C69.4799 12.7357 70.0806 12.3661 70.7275 12.0889C71.3744 11.8578 72.1137 11.7192 72.8068 11.7654C78.4901 11.7654 79.1832 19.9439 76.5495 23.1322C75.9026 23.7791 75.1171 24.3335 74.2392 24.657C73.3612 25.0266 72.4371 25.1652 71.513 25.119C68.5558 25.0728 65.5986 23.2246 65.5986 19.4357L65.6448 7.14478ZM68.9716 15.7854L68.9254 17.8646V19.4819C68.8792 19.8515 68.9254 20.175 69.0179 20.5446C69.1103 20.8681 69.2951 21.1915 69.5261 21.4687C69.7571 21.746 70.0344 21.977 70.3578 22.1156C70.6813 22.2542 71.0047 22.3467 71.3744 22.3929C74.1467 22.3929 74.655 20.2212 74.655 18.2805C74.7474 17.2178 74.4702 16.155 73.9619 15.2309C72.6682 13.5212 70.1268 14.4454 68.9716 15.7854ZM83.2032 18.9736C83.2494 19.5281 83.3418 20.0363 83.5266 20.5446C84.8666 23.548 88.5169 22.5777 90.6886 20.8681L91.9362 23.0398C91.1969 23.7791 90.2728 24.3335 89.3024 24.7032C88.8404 24.888 88.3321 24.9804 87.8238 25.0728C87.3618 25.119 86.8535 25.1652 86.3914 25.1652C85.5135 25.1652 84.6356 25.0266 83.8039 24.7032C83.0184 24.4259 82.3253 23.9639 81.7246 23.3632C81.1239 22.7625 80.6618 21.977 80.3384 21.1915C79.9688 20.2212 79.8301 19.2046 79.8301 18.1881C79.8301 17.3564 79.9687 16.4785 80.246 15.6929C80.5232 14.9536 80.9391 14.2606 81.4936 13.6599C82.048 13.0592 82.7411 12.5971 83.4804 12.2737C84.3121 11.904 85.2363 11.7654 86.1604 11.7654C86.9459 11.7654 87.7314 11.904 88.4707 12.1351C89.1638 12.3661 89.7645 12.7819 90.319 13.2902C90.8272 13.7985 91.2431 14.4454 91.5203 15.1385C91.7514 15.6929 91.8438 16.2474 91.9362 16.8481C91.9824 17.5412 91.9824 18.1881 91.9824 18.8812H83.2032V18.9736ZM88.979 16.6171C88.9328 16.155 88.7942 15.6929 88.5169 15.3233C88.2397 14.9536 87.87 14.6302 87.4542 14.4454C87.0845 14.3068 86.6687 14.2143 86.2528 14.2143C85.5597 14.1681 84.8204 14.3992 84.2659 14.8612C83.7115 15.3233 83.3418 15.924 83.2032 16.6633H88.979V16.6171Z" fill="white"/>
</svg>
