<svg width="118" height="32" viewBox="0 0 118 32" fill="none" xmlns="http://www.w3.org/2000/svg">
<path fill-rule="evenodd" clip-rule="evenodd" d="M31.2512 15.0179L24.8294 3.88379C24.3674 3.0522 23.4434 2.4978 22.4732 2.4978H9.6759C8.7057 2.4978 7.78171 3.006 7.31971 3.88379L0.944154 15.0179C0.482157 15.8495 0.482157 16.8659 0.944154 17.7437L7.36591 28.8778C7.82791 29.7094 8.7519 30.2638 9.7221 30.2638H22.5194C23.4896 30.2638 24.4136 29.7556 24.8756 28.8778L31.2512 17.7437C31.7132 16.8659 31.7132 15.8495 31.2512 15.0179ZM27.6476 17.4203L22.7504 25.9211C22.3808 26.5678 21.6878 26.9836 20.9486 26.9836H11.2005C10.4613 26.9836 9.7683 26.5678 9.3987 25.9211L4.54773 17.4203C4.17813 16.7735 4.17813 15.9881 4.54773 15.3413L9.3987 6.84057C9.7683 6.19378 10.4613 5.77798 11.2005 5.77798H20.9486C21.6878 5.77798 22.3808 6.19378 22.7504 6.84057L27.6476 15.3413C28.0172 15.9881 28.0172 16.7735 27.6476 17.4203Z" fill="#0DA6A6"/>
<path fill-rule="evenodd" clip-rule="evenodd" d="M23.1754 18.6843C23.3524 18.3763 23.1301 17.9921 22.7748 17.9921H20.056C19.8902 17.9921 19.7372 18.081 19.6549 18.2249L18.6363 20.0074C18.4977 20.2384 18.2205 20.4232 17.9433 20.4232H14.2473C13.9701 20.4232 13.6929 20.2846 13.5543 20.0074L12.5357 18.2249C12.4535 18.081 12.3004 17.9921 12.1346 17.9921H9.41581C9.06056 17.9921 8.83823 18.3763 9.01527 18.6843L11.4754 22.9642C11.7525 23.4262 12.2145 23.7034 12.7227 23.7034H19.4679C19.9761 23.7034 20.4381 23.4262 20.7153 22.9642L23.1754 18.6843ZM20.6691 9.7973L23.0961 14.0197C23.2732 14.3277 23.0509 14.7119 22.6956 14.7119H20.0232C19.8574 14.7119 19.7043 14.6231 19.6221 14.4792L18.6363 12.7541C18.4977 12.4769 18.2205 12.3383 17.9433 12.3383H14.2473C13.9701 12.3383 13.6929 12.5231 13.5543 12.7541L12.5686 14.4792C12.4863 14.6231 12.3332 14.7119 12.1675 14.7119H9.44884C9.09359 14.7119 8.87126 14.3277 9.0483 14.0197L11.4754 9.7973C11.7525 9.3353 12.2145 9.05811 12.7227 9.05811H19.4217C19.9299 9.05811 20.3919 9.3353 20.6691 9.7973Z" fill="#FF0031"/>
<path fill-rule="evenodd" clip-rule="evenodd" d="M105.831 12.0144V20.2853C105.831 20.9322 105.692 21.6253 105.415 22.226C105.138 22.8267 104.768 23.3811 104.26 23.8432C103.058 24.8135 101.58 25.368 100.009 25.368C98.484 25.368 96.9592 24.8135 95.7578 23.8432C95.2495 23.3811 94.8799 22.8267 94.6026 22.226C94.3254 21.6253 94.1868 20.9322 94.1868 20.2853V12.0144H97.5136V20.2853C97.5136 20.5163 97.5598 20.7936 97.6523 21.0246C97.7447 21.2556 97.8833 21.4405 98.0681 21.6253C98.6226 21.9949 99.2695 22.226 99.9626 22.226C100.656 22.226 101.303 22.0411 101.857 21.6253C102.042 21.4405 102.18 21.2556 102.273 21.0246C102.365 20.7936 102.412 20.5625 102.412 20.2853V12.0144H105.831ZM112.069 23.0577C112.392 23.0577 112.716 23.0115 112.993 22.9191C113.224 22.8729 113.455 22.7342 113.64 22.5956C113.778 22.457 113.917 22.3184 114.009 22.1336C114.102 21.9487 114.102 21.7639 114.102 21.5791C114.102 21.4405 114.102 21.3481 114.055 21.2094C114.009 21.0708 113.963 20.9784 113.871 20.886C113.686 20.7012 113.409 20.5163 113.178 20.4239C112.854 20.2853 112.531 20.1467 112.161 20.0543C111.745 19.9157 111.376 19.8232 110.96 19.6846C110.544 19.546 110.174 19.4074 109.758 19.2226C109.389 19.0377 109.019 18.8067 108.696 18.5295C108.372 18.2522 108.141 17.8826 107.956 17.5129C107.771 17.0509 107.679 16.5426 107.679 16.0343C107.679 15.5261 107.771 14.9716 108.002 14.5095C108.234 14.0012 108.557 13.5854 108.973 13.2157C109.435 12.8461 109.989 12.5226 110.544 12.3378C111.237 12.1068 111.976 12.0144 112.716 12.0144C113.547 12.0144 114.425 12.153 115.211 12.4764C115.904 12.7537 116.551 13.1233 117.105 13.6316L117.151 13.6778L116.042 15.6185L115.211 15.1564H115.164L114.61 14.8792H114.564C114.333 14.7868 114.056 14.6943 113.778 14.6019C113.455 14.5095 113.085 14.4633 112.762 14.4633C112.253 14.4171 111.791 14.5557 111.376 14.833C111.237 14.9254 111.098 15.064 111.006 15.2488C110.913 15.4336 110.867 15.6185 110.867 15.8033C110.867 15.9419 110.867 16.0343 110.913 16.1267C110.96 16.2191 111.006 16.3116 111.098 16.404C111.283 16.5888 111.56 16.7736 111.791 16.866C112.115 17.0047 112.438 17.1433 112.808 17.2357C113.224 17.3743 113.593 17.4667 113.963 17.6053C114.333 17.744 114.749 17.8826 115.118 18.0674C115.488 18.2522 115.858 18.4371 116.181 18.7143C116.504 18.9915 116.735 19.315 116.92 19.6846C117.105 20.1005 117.198 20.5625 117.198 21.0246C117.198 21.6253 117.105 22.226 116.874 22.7804C116.643 23.3349 116.273 23.797 115.858 24.1666C115.349 24.5825 114.795 24.8597 114.194 25.0908C113.455 25.3218 112.669 25.4142 111.93 25.4142C111.468 25.4142 111.052 25.368 110.59 25.2756C110.174 25.1832 109.758 25.0908 109.342 24.9521C108.973 24.8135 108.603 24.6287 108.234 24.4439C107.91 24.2591 107.633 24.0742 107.356 23.797L108.603 21.6253C109.758 22.3184 110.636 23.0577 112.069 23.0577ZM41.0033 19.0839V25.368H37.7227V7.34753H44.6536C46.2708 7.34753 47.8418 7.94822 48.997 9.10337C49.5515 9.61164 50.0135 10.2585 50.337 10.9978C50.6604 11.6909 50.799 12.4764 50.799 13.2619C50.799 14.0475 50.6604 14.7868 50.337 15.5261C50.0135 16.2191 49.5515 16.866 48.997 17.4205C48.5349 17.8364 48.0267 18.206 47.4722 18.4833L51.4921 25.4142H47.4722L43.9143 19.1301H41.0033V19.0839ZM44.6074 10.5358H41.0033V15.8957H44.6074C45.3467 15.8957 46.086 15.6185 46.5943 15.1102C46.8715 14.8792 47.0563 14.6019 47.2412 14.2785C47.3798 13.955 47.4722 13.5854 47.4722 13.2619C47.4722 12.8923 47.3798 12.5688 47.2412 12.2454C47.1025 11.922 46.8715 11.6447 46.5943 11.4137C46.086 10.8592 45.3467 10.5358 44.6074 10.5358ZM64.1527 12.0144V20.2853C64.1527 20.9322 64.0141 21.6253 63.7368 22.226C63.4596 22.8267 63.0899 23.3811 62.5817 23.8432C61.3803 24.8135 59.9017 25.368 58.3307 25.368C56.8059 25.368 55.2811 24.8135 54.0797 23.8432C53.5714 23.3811 53.2018 22.8267 52.9245 22.226C52.6473 21.6253 52.5087 20.9322 52.5087 20.2853V12.0144H55.8355V20.2853C55.8355 20.5163 55.8817 20.7936 55.9742 21.0246C56.0666 21.2556 56.2052 21.4405 56.39 21.6253C56.9445 21.9949 57.5914 22.226 58.2845 22.226C58.9776 22.226 59.6245 22.0411 60.1789 21.6253C60.3638 21.4405 60.5024 21.2556 60.5948 21.0246C60.6872 20.7936 60.7334 20.5625 60.7334 20.2853V12.0144H64.1527ZM66.0471 7.34753H69.374V13.4468C69.8823 12.9385 70.4829 12.5688 71.1298 12.2916C71.7767 12.0606 72.516 11.922 73.2091 11.9682C78.8925 11.9682 79.5856 20.1467 76.9518 23.3349C76.3049 23.9818 75.5194 24.5363 74.6415 24.8597C73.7636 25.2294 72.8395 25.368 71.9153 25.3218C68.9581 25.2756 66.0009 23.4273 66.0009 19.6384L66.0471 7.34753ZM69.374 15.9881L69.3278 18.0674V19.6846C69.2816 20.0543 69.3278 20.3777 69.4202 20.7474C69.5126 21.0708 69.6974 21.3943 69.9285 21.6715C70.1595 21.9487 70.4367 22.1798 70.7602 22.3184C71.0836 22.457 71.4071 22.5494 71.7767 22.5956C74.5491 22.5956 75.0574 20.4239 75.0574 18.4833C75.1498 17.4205 74.8725 16.3578 74.3643 15.4336C73.0705 13.724 70.5291 14.6481 69.374 15.9881ZM83.6055 19.1764C83.6517 19.7308 83.7442 20.2391 83.929 20.7474C85.269 23.7508 88.9193 22.7804 91.091 21.0708L92.3385 23.2425C91.5992 23.9818 90.6751 24.5363 89.7048 24.9059C89.2427 25.0908 88.7344 25.1832 88.2262 25.2756C87.7641 25.3218 87.2558 25.368 86.7938 25.368C85.9158 25.368 85.0379 25.2294 84.2062 24.9059C83.4207 24.6287 82.7276 24.1666 82.1269 23.566C81.5263 22.9653 81.0642 22.1798 80.7407 21.3943C80.3711 20.4239 80.2325 19.4074 80.2325 18.3908C80.2325 17.5591 80.3711 16.6812 80.6483 15.8957C80.9256 15.1564 81.3414 14.4633 81.8959 13.8626C82.4504 13.2619 83.1435 12.7999 83.8828 12.4764C84.7145 12.1068 85.6386 11.9682 86.5627 11.9682C87.3482 11.9682 88.1338 12.1068 88.8731 12.3378C89.5661 12.5688 90.1668 12.9847 90.7213 13.493C91.2296 14.0012 91.6454 14.6481 91.9227 15.3412C92.1537 15.8957 92.2461 16.4502 92.3385 17.0509C92.3847 17.744 92.3847 18.3908 92.3847 19.0839H83.6055V19.1764ZM89.3813 16.8198C89.3351 16.3578 89.1965 15.8957 88.9193 15.5261C88.642 15.1564 88.2724 14.833 87.8565 14.6481C87.4869 14.5095 87.071 14.4171 86.6551 14.4171C85.9621 14.3709 85.2228 14.6019 84.6683 15.064C84.1138 15.5261 83.7442 16.1267 83.6055 16.866H89.3813V16.8198Z" fill="#4D4D4D"/>
</svg>
